<?xml version="1.0" encoding="utf-8"?>
<!-- Generator: Adobe Illustrator 24.0.2, SVG Export Plug-In . SVG Version: 6.00 Build 0)  -->
<svg version="1.1" id="Capa_1" xmlns="http://www.w3.org/2000/svg" xmlns:xlink="http://www.w3.org/1999/xlink" x="0px" y="0px"
	 width="946.845px" height="286.911px" viewBox="0 0 946.845 286.911" style="enable-background:new 0 0 946.845 286.911;"
	 xml:space="preserve">
<style type="text/css">
	.st0{fill:#003DA6;}
	.st1{fill:#0075BF;}
	.st2{fill:#F7A600;}
	.st3{fill:#FFCC00;}
	.st4{fill:#E84E0F;}
	.st5{fill:#5BC5F2;}
	.st6{fill:#52AE32;}
</style>
<g>
	<path class="st0" d="M423.764,65.169h-45.331c-8.555,0-15.473,6.929-15.473,15.494v119.92c0,8.553,6.918,15.484,15.473,15.484
		h45.331c30.656,0,53.137-15.607,53.137-52.062v-46.775C476.901,80.747,454.42,65.169,423.764,65.169z M445.415,165.307
		c0,20.631-12.946,25.38-26.165,25.38h-25.104V90.538h25.104c13.219,0,26.165,4.767,26.165,25.38V165.307z"/>
	<path class="st0" d="M512.044,54.858c-9.326,0-16.911,7.392-16.911,16.514c0,9.129,7.585,16.521,16.911,16.521
		c9.358,0,16.929-7.392,16.929-16.521C528.973,62.25,521.402,54.858,512.044,54.858z"/>
	<path class="st0" d="M527.131,118.572c0-8.329-6.75-15.078-15.087-15.078c-8.319,0-15.07,6.75-15.07,15.078l-0.009,82.426
		c0,8.318,6.759,15.07,15.078,15.07c8.338,0,15.069-6.752,15.069-15.07L527.131,118.572z"/>
	<path class="st0" d="M618.754,103.285c6.836,1.538,11.168,8.224,9.621,15.049c-1.519,6.836-8.288,11.144-15.124,9.613
		c-4.541-1.03-10.075-2.012-15.6-2.012c-13.727,0-22.99,5.591-22.99,33.586c0,28.032,9.263,33.641,22.99,33.641
		c5.475,0,10.555-0.755,15.078-1.758c6.723-1.839,13.672,2.116,15.505,8.839c1.842,6.723-2.164,13.548-8.868,15.399
		c-6.446,1.624-15.16,3.116-25.398,3.116c-16.653,0-30.411-6.128-39.919-19.195c-7.92-10.867-9.526-22.953-9.526-40.042
		c0-17.042,1.606-29.138,9.526-39.996c9.508-13.057,23.266-19.204,39.919-19.204C603.884,100.32,612.372,101.727,618.754,103.285z"
		/>
	<path class="st0" d="M701.341,102.35c6.714,1.481,10.914,8.204,9.436,14.908c-1.484,6.693-8.12,10.923-14.824,9.442
		c-3.053-0.71-6.546-1.265-10.116-1.265c-7.303,0-12.234,3.427-12.234,8.714c0,17.458,45.263,8.989,45.263,48.919
		c0,26.446-25.371,35.689-45.471,35.689c-8.854,0-17.024-1.577-23.049-3.296c-5.216-1.567-9.023-6.4-9.023-12.132
		c0-7.006,5.666-12.681,12.661-12.681c1.284,0,2.522,0.218,3.674,0.576c4.691,1.191,10.374,2.153,16.521,2.153
		c8.093,0,13.418-2.454,13.418-8.365c0-20.186-45.68-8.024-45.68-51.117c0-18.771,16.693-33.3,42.581-33.3
		C691.22,100.595,696.877,101.348,701.341,102.35z"/>
	<path class="st0" d="M898.068,102.35c6.704,1.481,10.905,8.204,9.426,14.908c-1.474,6.693-8.12,10.923-14.824,9.442
		c-3.053-0.71-6.546-1.265-10.125-1.265c-7.308,0-12.216,3.427-12.216,8.714c0,17.458,45.254,8.989,45.254,48.919
		c0,26.446-25.371,35.689-45.471,35.689c-8.854,0-17.024-1.577-23.057-3.296c-5.222-1.567-9.014-6.4-9.014-12.132
		c0-7.006,5.666-12.681,12.661-12.681c1.284,0,2.522,0.218,3.674,0.576c4.691,1.191,10.374,2.153,16.53,2.153
		c8.066,0,13.409-2.454,13.409-8.365c0-20.186-45.671-8.024-45.671-51.117c0-18.771,16.684-33.3,42.573-33.3
		C887.957,100.595,893.586,101.348,898.068,102.35z"/>
	<path class="st0" d="M743.809,233.543c11.2,0,16.911-5.929,19.905-14.861l1.588-5.94l-35.619-90.668
		c-0.413-1.379-0.621-2.851-0.621-4.382c0-8.496,6.881-15.38,15.364-15.38c6.673,0,12.339,4.239,14.47,10.189l12.806,38.513
		c3.198,10.29,5.947,21.046,8.923,32.235h0.907c2.526-10.746,5.04-21.491,7.78-32.235l10.706-37.975
		c1.284-6.958,6.881-10.726,14.198-10.726c8.283,0,14.997,6.723,14.997,14.995c0,1.039-0.113,2.048-0.304,3.012l-32.96,96.54
		c-10.755,28.59-22.876,43.214-49.617,43.214c-1.579,0-3.012-0.057-4.364-0.131c-7.267-0.519-12.747-6.902-12.216-14.153
		C730.241,238.499,736.542,233.042,743.809,233.543z"/>
</g>
<g>
	<path class="st1" d="M148.868,94.777c1.556-1.255,3.18-2.463,4.89-3.568c26.619-17.242,62.165-9.63,79.416,16.965v0.018
		l39.456-25.566c0,0,0,0,0-0.02c-29.894-46.149-91.569-59.341-137.725-29.429c-22.481,14.559-37.106,36.662-42.781,60.824
		c3.076-2.851,6.373-5.525,10.016-7.895C116.538,96.771,133.023,93.228,148.868,94.777z"/>
	<path class="st1" d="M321.671,86.054l-79.37,51.409c0.626,19.461-8.592,38.76-26.102,50.098c-1.719,1.134-3.456,2.116-5.262,3.021
		c-5.062,15.108-15.033,28.676-29.44,38.002c-3.643,2.37-7.44,4.296-11.291,5.931c24.36,4.702,50.502,0.386,72.984-14.183
		c27.231-17.637,42.912-46.319,45.113-76.374C322.86,118.315,321.671,86.054,321.671,86.054z"/>
	<path class="st2" d="M92.124,114.002c-18.009,16.73-26.043,41.212-22.323,64.798l23.398-15.144
		C88.581,147.273,88.336,130.185,92.124,114.002z"/>
	<path class="st2" d="M170.206,234.516c-25.68-4.958-49.399-19.932-64.723-43.612l-63.78,41.316c0,0,25.906,12.738,60.454-3.681
		C122.136,241.445,147.648,244.051,170.206,234.516z"/>
	<path class="st3" d="M176.407,154.649c0,8.252-6.7,14.954-14.965,14.954c-8.251,0-14.933-6.702-14.933-14.954
		c0-8.263,6.682-14.956,14.933-14.956C169.707,139.693,176.407,146.386,176.407,154.649z"/>
	<path class="st4" d="M148.868,94.777c-15.845-1.549-32.33,1.994-46.728,11.329c-3.643,2.37-6.94,5.045-10.016,7.895
		c-3.788,16.183-3.543,33.271,1.075,49.654l34.507-22.339C127.126,123.764,134.515,106.363,148.868,94.777z"/>
	<path class="st4" d="M141.492,176.74c-1.905-1.708-3.67-3.597-5.126-5.843l-30.883,20.007
		c15.323,23.679,39.043,38.653,64.723,43.612c3.851-1.636,7.648-3.561,11.291-5.931c14.407-9.326,24.378-22.894,29.44-38.002
		C187.362,202.574,158.621,196.72,141.492,176.74z"/>
	<path class="st5" d="M203.053,127.692c0,0,0,0,0.009,0l30.111-19.499v-0.018c-17.251-26.596-52.797-34.207-79.416-16.965
		c-1.71,1.105-3.334,2.313-4.89,3.568C170.243,96.864,190.47,108.27,203.053,127.692z"/>
	<path class="st5" d="M213.791,155.951c1.819,11.679,0.875,23.557-2.853,34.632c1.805-0.905,3.543-1.887,5.262-3.021
		c17.51-11.338,26.727-30.638,26.102-50.098L213.791,155.951z"/>
	<path class="st6" d="M145.334,129.901c0.077-0.048,0.127-0.095,0.208-0.152c13.699-8.875,31.971-4.986,40.844,8.743h0.009
		l16.666-10.801c-0.009,0-0.009,0-0.009,0c-12.583-19.422-32.81-30.828-54.185-32.915c-14.352,11.585-21.742,28.986-21.162,46.539
		l17.365-11.266C145.166,129.994,145.253,129.976,145.334,129.901z"/>
	<path class="st6" d="M177.21,179.639c-11.44,7.412-26.038,5.788-35.719-2.899c17.129,19.98,45.87,25.834,69.445,13.842
		c3.729-11.075,4.672-22.953,2.853-34.632L177.21,179.639z"/>
</g>
</svg>
